<svg width="540" height="540" viewBox="0 0 540 540" fill="none" xmlns="http://www.w3.org/2000/svg">
<g clip-path="url(#clip0_334_944)">
<rect width="540" height="540" rx="270" fill="#00182D"/>
<line opacity="0.3" x1="1" y1="-26.5" x2="1.00002" y2="540" stroke="white" stroke-opacity="0.1"/>
<line opacity="0.3" x1="16" y1="-26.5" x2="16" y2="540" stroke="white" stroke-opacity="0.1"/>
<line opacity="0.3" x1="31" y1="-26.5" x2="31" y2="540" stroke="white" stroke-opacity="0.1"/>
<line x1="46" y1="-26.5" x2="46" y2="540" stroke="white" stroke-opacity="0.1"/>
<line opacity="0.3" x1="61" y1="-26.5" x2="61" y2="540" stroke="white" stroke-opacity="0.1"/>
<line opacity="0.3" x1="76" y1="-26.5" x2="76" y2="540" stroke="white" stroke-opacity="0.1"/>
<line opacity="0.3" x1="91" y1="-26.5" x2="91" y2="540" stroke="white" stroke-opacity="0.1"/>
<line opacity="0.3" x1="106" y1="-26.5" x2="106" y2="540" stroke="white" stroke-opacity="0.1"/>
<line x1="121" y1="-26.5" x2="121" y2="540" stroke="white" stroke-opacity="0.1"/>
<line opacity="0.3" x1="136" y1="-26.5" x2="136" y2="540" stroke="white" stroke-opacity="0.1"/>
<line opacity="0.3" x1="151" y1="-26.5" x2="151" y2="540" stroke="white" stroke-opacity="0.1"/>
<line opacity="0.3" x1="166" y1="-26.5" x2="166" y2="540" stroke="white" stroke-opacity="0.1"/>
<line opacity="0.3" x1="181" y1="-26.5" x2="181" y2="540" stroke="white" stroke-opacity="0.1"/>
<line x1="196" y1="-26.5" x2="196" y2="540" stroke="white" stroke-opacity="0.1"/>
<line opacity="0.3" x1="211" y1="-26.5" x2="211" y2="540" stroke="white" stroke-opacity="0.1"/>
<line opacity="0.3" x1="226" y1="-26.5" x2="226" y2="540" stroke="white" stroke-opacity="0.1"/>
<line opacity="0.3" x1="241" y1="-26.5" x2="241" y2="540" stroke="white" stroke-opacity="0.1"/>
<line opacity="0.3" x1="256" y1="-26.5" x2="256" y2="540" stroke="white" stroke-opacity="0.1"/>
<line x1="271" y1="-26.5" x2="271" y2="540" stroke="white" stroke-opacity="0.1"/>
<line opacity="0.3" x1="286" y1="-26.5" x2="286" y2="540" stroke="white" stroke-opacity="0.1"/>
<line opacity="0.3" x1="301" y1="-26.5" x2="301" y2="540" stroke="white" stroke-opacity="0.1"/>
<line opacity="0.3" x1="316" y1="-26.5" x2="316" y2="540" stroke="white" stroke-opacity="0.1"/>
<line opacity="0.3" x1="331" y1="-26.5" x2="331" y2="540" stroke="white" stroke-opacity="0.1"/>
<line opacity="0.3" x1="361" y1="-26.5" x2="361" y2="540" stroke="white" stroke-opacity="0.1"/>
<line opacity="0.3" x1="376" y1="-26.5" x2="376" y2="540" stroke="white" stroke-opacity="0.1"/>
<line opacity="0.3" x1="391" y1="-26.5" x2="391" y2="540" stroke="white" stroke-opacity="0.1"/>
<line opacity="0.3" x1="406" y1="-26.5" x2="406" y2="540" stroke="white" stroke-opacity="0.1"/>
<line x1="421" y1="-26.5" x2="421" y2="540" stroke="white" stroke-opacity="0.1"/>
<line opacity="0.3" x1="436" y1="-26.5" x2="436" y2="540" stroke="white" stroke-opacity="0.1"/>
<line opacity="0.3" x1="451" y1="-26.5" x2="451" y2="540" stroke="white" stroke-opacity="0.1"/>
<line opacity="0.3" x1="466" y1="-26.5" x2="466" y2="540" stroke="white" stroke-opacity="0.1"/>
<line opacity="0.3" x1="481" y1="-26.5" x2="481" y2="540" stroke="white" stroke-opacity="0.1"/>
<line x1="496" y1="-26.5" x2="496" y2="540" stroke="white" stroke-opacity="0.1"/>
<line opacity="0.3" x1="510" y1="-26.5" x2="510" y2="540" stroke="white" stroke-opacity="0.1"/>
<line opacity="0.3" x1="525" y1="-26.5" x2="525" y2="540" stroke="white" stroke-opacity="0.1"/>
<line opacity="0.3" x1="540" y1="-26.5" x2="540" y2="540" stroke="white" stroke-opacity="0.1"/>
<line opacity="0.3" x1="-29.5" y1="483" x2="540" y2="483" stroke="white" stroke-opacity="0.1"/>
<line opacity="0.3" x1="-29.5" y1="468" x2="540" y2="468" stroke="white" stroke-opacity="0.1"/>
<line opacity="0.3" x1="-29.5" y1="453" x2="540" y2="453" stroke="white" stroke-opacity="0.1"/>
<line opacity="0.3" x1="-29.5" y1="438" x2="540" y2="438" stroke="white" stroke-opacity="0.1"/>
<line x1="-29.5" y1="423" x2="540" y2="423" stroke="white" stroke-opacity="0.1"/>
<line opacity="0.3" x1="-29.5" y1="408" x2="540" y2="408" stroke="white" stroke-opacity="0.1"/>
<line opacity="0.3" x1="-29.5" y1="393" x2="540" y2="393" stroke="white" stroke-opacity="0.1"/>
<line opacity="0.3" x1="-29.5" y1="378" x2="540" y2="378" stroke="white" stroke-opacity="0.1"/>
<line opacity="0.3" x1="-29.5" y1="363" x2="540" y2="363" stroke="white" stroke-opacity="0.1"/>
<line x1="-29.5" y1="348" x2="540" y2="348" stroke="white" stroke-opacity="0.1"/>
<line opacity="0.3" x1="-29.5" y1="333" x2="540" y2="333" stroke="white" stroke-opacity="0.1"/>
<line opacity="0.3" x1="-29.5" y1="318" x2="540" y2="318" stroke="white" stroke-opacity="0.1"/>
<line opacity="0.3" x1="-29.5" y1="303" x2="540" y2="303" stroke="white" stroke-opacity="0.1"/>
<line opacity="0.3" x1="-29.5" y1="288" x2="540" y2="288" stroke="white" stroke-opacity="0.1"/>
<line x1="-29.5" y1="273" x2="540" y2="273" stroke="white" stroke-opacity="0.1"/>
<line opacity="0.3" x1="-29.5" y1="258" x2="540" y2="258" stroke="white" stroke-opacity="0.1"/>
<line opacity="0.3" x1="-29.5" y1="243" x2="540" y2="243" stroke="white" stroke-opacity="0.1"/>
<line opacity="0.3" x1="-29.5" y1="228" x2="540" y2="228" stroke="white" stroke-opacity="0.1"/>
<line opacity="0.3" x1="-29.5" y1="213" x2="540" y2="213" stroke="white" stroke-opacity="0.1"/>
<line x1="-29.5" y1="198" x2="540" y2="198" stroke="white" stroke-opacity="0.1"/>
<line opacity="0.3" x1="-29.5" y1="183" x2="540" y2="183" stroke="white" stroke-opacity="0.1"/>
<line opacity="0.3" x1="-29.5" y1="168" x2="540" y2="168" stroke="white" stroke-opacity="0.1"/>
<line opacity="0.3" x1="-29.5" y1="153" x2="540" y2="153" stroke="white" stroke-opacity="0.1"/>
<line opacity="0.3" x1="-29.5" y1="138" x2="540" y2="138" stroke="white" stroke-opacity="0.1"/>
<line x1="-29.5" y1="123" x2="540" y2="123" stroke="white" stroke-opacity="0.1"/>
<line opacity="0.3" x1="-29.5" y1="108" x2="540" y2="108" stroke="white" stroke-opacity="0.1"/>
<line opacity="0.3" x1="-29.5" y1="93" x2="540" y2="93" stroke="white" stroke-opacity="0.1"/>
<line opacity="0.3" x1="-29.5" y1="78" x2="540" y2="78" stroke="white" stroke-opacity="0.1"/>
<line opacity="0.3" x1="-29.5" y1="63" x2="540" y2="63" stroke="white" stroke-opacity="0.1"/>
<line x1="-29.5" y1="48" x2="540" y2="48" stroke="white" stroke-opacity="0.1"/>
<line opacity="0.3" x1="-29.5" y1="33" x2="540" y2="33" stroke="white" stroke-opacity="0.1"/>
<line opacity="0.3" x1="-29.5" y1="18" x2="540" y2="18" stroke="white" stroke-opacity="0.1"/>
<line opacity="0.3" x1="-29.5" y1="3" x2="540" y2="2.99998" stroke="white" stroke-opacity="0.1"/>
<line opacity="0.3" x1="-29.5" y1="539.5" x2="540" y2="539.5" stroke="white" stroke-opacity="0.1"/>
<line x1="-29.5" y1="498" x2="540" y2="498" stroke="white" stroke-opacity="0.1"/>
<line opacity="0.3" x1="-29.5" y1="513" x2="540" y2="513" stroke="white" stroke-opacity="0.1"/>
<line opacity="0.3" x1="-29.5" y1="528" x2="540" y2="528" stroke="white" stroke-opacity="0.1"/>
<line x1="46" y1="43.5" x2="46" y2="52.5" stroke="white" stroke-opacity="0.2"/>
<line x1="50.5" y1="48" x2="41.5" y2="48" stroke="white" stroke-opacity="0.2"/>
<line x1="46" y1="118.5" x2="46" y2="127.5" stroke="white" stroke-opacity="0.2"/>
<line x1="50.5" y1="123" x2="41.5" y2="123" stroke="white" stroke-opacity="0.2"/>
<line x1="46" y1="193.5" x2="46" y2="202.5" stroke="white" stroke-opacity="0.2"/>
<line x1="50.5" y1="198" x2="41.5" y2="198" stroke="white" stroke-opacity="0.2"/>
<line x1="46" y1="268.5" x2="46" y2="277.5" stroke="white" stroke-opacity="0.2"/>
<line x1="50.5" y1="273" x2="41.5" y2="273" stroke="white" stroke-opacity="0.2"/>
<line x1="46" y1="343.5" x2="46" y2="352.5" stroke="white" stroke-opacity="0.2"/>
<line x1="50.5" y1="348" x2="41.5" y2="348" stroke="white" stroke-opacity="0.2"/>
<line x1="46" y1="418.5" x2="46" y2="427.5" stroke="white" stroke-opacity="0.2"/>
<line x1="50.5" y1="423" x2="41.5" y2="423" stroke="white" stroke-opacity="0.2"/>
<line x1="46" y1="493.5" x2="46" y2="502.5" stroke="white" stroke-opacity="0.2"/>
<line x1="50.5" y1="498" x2="41.5" y2="498" stroke="white" stroke-opacity="0.2"/>
<line x1="121" y1="43.5" x2="121" y2="52.5" stroke="white" stroke-opacity="0.2"/>
<line x1="125.5" y1="48" x2="116.5" y2="48" stroke="white" stroke-opacity="0.2"/>
<line x1="121" y1="118.5" x2="121" y2="127.5" stroke="white" stroke-opacity="0.2"/>
<line x1="125.5" y1="123" x2="116.5" y2="123" stroke="white" stroke-opacity="0.2"/>
<line x1="121" y1="193.5" x2="121" y2="202.5" stroke="white" stroke-opacity="0.2"/>
<line x1="125.5" y1="198" x2="116.5" y2="198" stroke="white" stroke-opacity="0.2"/>
<line x1="121" y1="268.5" x2="121" y2="277.5" stroke="white" stroke-opacity="0.2"/>
<line x1="125.5" y1="273" x2="116.5" y2="273" stroke="white" stroke-opacity="0.2"/>
<line x1="121" y1="343.5" x2="121" y2="352.5" stroke="white" stroke-opacity="0.2"/>
<line x1="125.5" y1="348" x2="116.5" y2="348" stroke="white" stroke-opacity="0.2"/>
<line x1="121" y1="418.5" x2="121" y2="427.5" stroke="white" stroke-opacity="0.2"/>
<line x1="125.5" y1="423" x2="116.5" y2="423" stroke="white" stroke-opacity="0.2"/>
<line x1="121" y1="493.5" x2="121" y2="502.5" stroke="white" stroke-opacity="0.2"/>
<line x1="125.5" y1="498" x2="116.5" y2="498" stroke="white" stroke-opacity="0.2"/>
<line x1="196" y1="43.5" x2="196" y2="52.5" stroke="white" stroke-opacity="0.2"/>
<line x1="200.5" y1="48" x2="191.5" y2="48" stroke="white" stroke-opacity="0.2"/>
<line x1="196" y1="118.5" x2="196" y2="127.5" stroke="white" stroke-opacity="0.2"/>
<line x1="200.5" y1="123" x2="191.5" y2="123" stroke="white" stroke-opacity="0.2"/>
<line x1="196" y1="193.5" x2="196" y2="202.5" stroke="white" stroke-opacity="0.2"/>
<line x1="200.5" y1="198" x2="191.5" y2="198" stroke="white" stroke-opacity="0.2"/>
<line x1="196" y1="268.5" x2="196" y2="277.5" stroke="white" stroke-opacity="0.2"/>
<line x1="200.5" y1="273" x2="191.5" y2="273" stroke="white" stroke-opacity="0.2"/>
<line x1="196" y1="343.5" x2="196" y2="352.5" stroke="white" stroke-opacity="0.2"/>
<line x1="200.5" y1="348" x2="191.5" y2="348" stroke="white" stroke-opacity="0.2"/>
<line x1="196" y1="418.5" x2="196" y2="427.5" stroke="white" stroke-opacity="0.2"/>
<line x1="200.5" y1="423" x2="191.5" y2="423" stroke="white" stroke-opacity="0.2"/>
<line x1="196" y1="493.5" x2="196" y2="502.5" stroke="white" stroke-opacity="0.2"/>
<line x1="200.5" y1="498" x2="191.5" y2="498" stroke="white" stroke-opacity="0.2"/>
<line x1="271" y1="43.5" x2="271" y2="52.5" stroke="white" stroke-opacity="0.2"/>
<line x1="275.5" y1="48" x2="266.5" y2="48" stroke="white" stroke-opacity="0.2"/>
<line x1="271" y1="118.5" x2="271" y2="127.5" stroke="white" stroke-opacity="0.2"/>
<line x1="275.5" y1="123" x2="266.5" y2="123" stroke="white" stroke-opacity="0.2"/>
<line x1="271" y1="193.5" x2="271" y2="202.5" stroke="white" stroke-opacity="0.2"/>
<line x1="275.5" y1="198" x2="266.5" y2="198" stroke="white" stroke-opacity="0.2"/>
<line x1="271" y1="268.5" x2="271" y2="277.5" stroke="white" stroke-opacity="0.2"/>
<line x1="275.5" y1="273" x2="266.5" y2="273" stroke="white" stroke-opacity="0.2"/>
<line x1="271" y1="343.5" x2="271" y2="352.5" stroke="white" stroke-opacity="0.2"/>
<line x1="275.5" y1="348" x2="266.5" y2="348" stroke="white" stroke-opacity="0.2"/>
<line x1="271" y1="418.5" x2="271" y2="427.5" stroke="white" stroke-opacity="0.2"/>
<line x1="275.5" y1="423" x2="266.5" y2="423" stroke="white" stroke-opacity="0.2"/>
<line x1="271" y1="493.5" x2="271" y2="502.5" stroke="white" stroke-opacity="0.2"/>
<line x1="275.5" y1="498" x2="266.5" y2="498" stroke="white" stroke-opacity="0.2"/>
<line x1="346" y1="43.5" x2="346" y2="52.5" stroke="white" stroke-opacity="0.2"/>
<line x1="350.5" y1="48" x2="341.5" y2="48" stroke="white" stroke-opacity="0.2"/>
<line x1="346" y1="118.5" x2="346" y2="127.5" stroke="white" stroke-opacity="0.2"/>
<line x1="350.5" y1="123" x2="341.5" y2="123" stroke="white" stroke-opacity="0.2"/>
<line x1="346" y1="193.5" x2="346" y2="202.5" stroke="white" stroke-opacity="0.2"/>
<line x1="350.5" y1="198" x2="341.5" y2="198" stroke="white" stroke-opacity="0.2"/>
<line x1="346" y1="268.5" x2="346" y2="277.5" stroke="white" stroke-opacity="0.2"/>
<line x1="350.5" y1="273" x2="341.5" y2="273" stroke="white" stroke-opacity="0.2"/>
<line x1="346" y1="343.5" x2="346" y2="352.5" stroke="white" stroke-opacity="0.2"/>
<line x1="350.5" y1="348" x2="341.5" y2="348" stroke="white" stroke-opacity="0.2"/>
<line x1="346" y1="418.5" x2="346" y2="427.5" stroke="white" stroke-opacity="0.2"/>
<line x1="350.5" y1="423" x2="341.5" y2="423" stroke="white" stroke-opacity="0.2"/>
<line x1="346" y1="493.5" x2="346" y2="502.5" stroke="white" stroke-opacity="0.2"/>
<line x1="350.5" y1="498" x2="341.5" y2="498" stroke="white" stroke-opacity="0.2"/>
<line x1="421" y1="43.5" x2="421" y2="52.5" stroke="white" stroke-opacity="0.2"/>
<line x1="425.5" y1="48" x2="416.5" y2="48" stroke="white" stroke-opacity="0.2"/>
<line x1="421" y1="118.5" x2="421" y2="127.5" stroke="white" stroke-opacity="0.2"/>
<line x1="425.5" y1="123" x2="416.5" y2="123" stroke="white" stroke-opacity="0.2"/>
<line x1="421" y1="193.5" x2="421" y2="202.5" stroke="white" stroke-opacity="0.2"/>
<line x1="425.5" y1="198" x2="416.5" y2="198" stroke="white" stroke-opacity="0.2"/>
<line x1="421" y1="268.5" x2="421" y2="277.5" stroke="white" stroke-opacity="0.2"/>
<line x1="425.5" y1="273" x2="416.5" y2="273" stroke="white" stroke-opacity="0.2"/>
<line x1="421" y1="343.5" x2="421" y2="352.5" stroke="white" stroke-opacity="0.2"/>
<line x1="425.5" y1="348" x2="416.5" y2="348" stroke="white" stroke-opacity="0.2"/>
<line x1="421" y1="418.5" x2="421" y2="427.5" stroke="white" stroke-opacity="0.2"/>
<line x1="425.5" y1="423" x2="416.5" y2="423" stroke="white" stroke-opacity="0.2"/>
<line x1="421" y1="493.5" x2="421" y2="502.5" stroke="white" stroke-opacity="0.2"/>
<line x1="425.5" y1="498" x2="416.5" y2="498" stroke="white" stroke-opacity="0.2"/>
<line x1="496" y1="43.5" x2="496" y2="52.5" stroke="white" stroke-opacity="0.2"/>
<line x1="500.5" y1="48" x2="491.5" y2="48" stroke="white" stroke-opacity="0.2"/>
<line x1="496" y1="118.5" x2="496" y2="127.5" stroke="white" stroke-opacity="0.2"/>
<line x1="500.5" y1="123" x2="491.5" y2="123" stroke="white" stroke-opacity="0.2"/>
<line x1="496" y1="193.5" x2="496" y2="202.5" stroke="white" stroke-opacity="0.2"/>
<line x1="500.5" y1="198" x2="491.5" y2="198" stroke="white" stroke-opacity="0.2"/>
<line x1="496" y1="268.5" x2="496" y2="277.5" stroke="white" stroke-opacity="0.2"/>
<line x1="500.5" y1="273" x2="491.5" y2="273" stroke="white" stroke-opacity="0.2"/>
<line x1="496" y1="343.5" x2="496" y2="352.5" stroke="white" stroke-opacity="0.2"/>
<line x1="500.5" y1="348" x2="491.5" y2="348" stroke="white" stroke-opacity="0.2"/>
<line x1="496" y1="418.5" x2="496" y2="427.5" stroke="white" stroke-opacity="0.2"/>
<line x1="500.5" y1="423" x2="491.5" y2="423" stroke="white" stroke-opacity="0.2"/>
<line x1="496" y1="493.5" x2="496" y2="502.5" stroke="white" stroke-opacity="0.2"/>
<line x1="500.5" y1="498" x2="491.5" y2="498" stroke="white" stroke-opacity="0.2"/>
<g filter="url(#filter0_f_334_944)">
<path d="M-102.945 183.192C122.858 451.932 305.324 502.965 709.667 453.664L613.786 741.733L-198.827 471.261L-102.945 183.192Z" fill="#02325A"/>
</g>
<g filter="url(#filter1_f_334_944)">
<path d="M702.834 363.724C497.097 115.69 329.908 67.9019 -41.4998 111.21L48.1329 -153L792.467 99.5135L702.834 363.724Z" fill="#02325A"/>
</g>
<path d="M271.599 340.41C272.099 342.16 271.588 344.042 270.272 345.297L235.97 378.028L166.115 166.728C165.067 163.561 167.426 160.297 170.762 160.297H216.413C218.598 160.297 220.519 161.745 221.12 163.846L271.599 340.41Z" fill="white"/>
<path d="M329.474 104.601C329.474 104.607 329.472 104.613 329.467 104.616C327.548 106.109 325.69 107.636 323.856 109.221C283.797 143.926 273.606 196.535 265.337 246.272C258.467 287.682 254.836 325.909 244.412 358.004C240.906 368.803 233.165 389.587 213.847 403.927C213.697 404.036 213.585 404.122 213.492 404.188C203.043 411.836 189.218 418.215 172.003 423.313C167.795 424.56 165.178 428.81 166.126 433.095L172.727 462.914C173.658 467.121 177.705 469.901 181.928 469.046C201.424 465.098 232.611 455.215 257.026 428.545C267.677 416.905 274.708 403.612 281.628 389.599C288.826 375.055 291.807 357.935 295.508 342.103C303.137 309.458 308.369 276.333 313.504 243.215C318.151 213.222 322.683 182.706 338.174 156.019C350.881 134.126 374.643 122.445 398.902 117.632C403.066 116.806 406.115 113.111 405.862 108.873C405.371 100.649 404.869 92.4293 404.349 84.2071C404.063 79.6849 400.135 76.2442 395.644 76.8507C371.677 80.088 348.603 89.7613 329.481 104.585C329.476 104.589 329.473 104.594 329.474 104.601Z" fill="#00C4F6"/>
<path d="M329.474 104.601C329.474 104.607 329.472 104.613 329.467 104.616C327.548 106.109 325.69 107.636 323.856 109.221C283.797 143.926 273.606 196.535 265.337 246.272C258.467 287.682 254.836 325.909 244.412 358.004C240.906 368.803 233.165 389.587 213.847 403.927C213.697 404.036 213.585 404.122 213.492 404.188C203.043 411.836 189.218 418.215 172.003 423.313C167.795 424.56 165.178 428.81 166.126 433.095L172.727 462.914C173.658 467.121 177.705 469.901 181.928 469.046C201.424 465.098 232.611 455.215 257.026 428.545C267.677 416.905 274.708 403.612 281.628 389.599C288.826 375.055 291.807 357.935 295.508 342.103C303.137 309.458 308.369 276.333 313.504 243.215C318.151 213.222 322.683 182.706 338.174 156.019C350.881 134.126 374.643 122.445 398.902 117.632C403.066 116.806 406.115 113.111 405.862 108.873C405.371 100.649 404.869 92.4293 404.349 84.2071C404.063 79.6849 400.135 76.2442 395.644 76.8507C371.677 80.088 348.603 89.7614 329.481 104.585C329.476 104.589 329.473 104.594 329.474 104.601Z" fill="url(#paint0_linear_334_944)"/>
</g>
<defs>
<filter id="filter0_f_334_944" x="-368.826" y="13.1924" width="1248.49" height="898.54" filterUnits="userSpaceOnUse" color-interpolation-filters="sRGB">
<feFlood flood-opacity="0" result="BackgroundImageFix"/>
<feBlend mode="normal" in="SourceGraphic" in2="BackgroundImageFix" result="shape"/>
<feGaussianBlur stdDeviation="85" result="effect1_foregroundBlur_334_944"/>
</filter>
<filter id="filter1_f_334_944" x="-211.5" y="-323" width="1173.97" height="856.724" filterUnits="userSpaceOnUse" color-interpolation-filters="sRGB">
<feFlood flood-opacity="0" result="BackgroundImageFix"/>
<feBlend mode="normal" in="SourceGraphic" in2="BackgroundImageFix" result="shape"/>
<feGaussianBlur stdDeviation="85" result="effect1_foregroundBlur_334_944"/>
</filter>
<linearGradient id="paint0_linear_334_944" x1="310.627" y1="273.497" x2="143.619" y2="408.288" gradientUnits="userSpaceOnUse">
<stop stop-color="#012246" stop-opacity="0"/>
<stop offset="1" stop-color="#004E92"/>
</linearGradient>
<clipPath id="clip0_334_944">
<rect width="540" height="540" rx="270" fill="white"/>
</clipPath>
</defs>
</svg>
