<svg width="202" height="72" viewBox="0 0 202 72" fill="none" xmlns="http://www.w3.org/2000/svg">
<path d="M0.441049 6.28542C0.426424 5.78253 0.830111 5.36694 1.33321 5.36694H33.7844C34.2975 5.36694 34.705 5.7986 34.6754 6.31091L34.3166 12.5274C34.2894 12.9996 33.8985 13.3685 33.4256 13.3685H23.5431C23.0501 13.3685 22.6505 13.7681 22.6505 14.2611V52.8671C22.6505 53.36 22.2509 53.7596 21.758 53.7596H13.5402C13.0473 53.7596 12.6477 53.36 12.6477 52.8671V14.2611C12.6477 13.7681 12.248 13.3685 11.7551 13.3685H1.51401C1.03117 13.3685 0.635879 12.9846 0.621843 12.5019L0.441049 6.28542Z" fill="#012246"/>
<path d="M45.679 15.8336C45.6783 15.8329 45.6788 15.8318 45.6797 15.8318C50.8052 15.8322 54.5241 17.1139 56.8329 19.6805C59.142 22.2474 60.2948 26.2214 60.2948 31.6059V52.9504C60.2948 53.4111 59.9442 53.7961 59.4854 53.839L52.8125 54.4631C52.38 54.5035 51.9813 54.2268 51.8678 53.8076L51.3928 52.0522C51.2325 51.4599 50.5356 51.2021 50.011 51.5205C46.6153 53.5814 42.9648 54.6118 39.0647 54.6118C35.7817 54.6118 33.204 53.7025 31.3316 51.8802C29.4592 50.0615 28.5247 47.559 28.5247 44.3798C28.5247 40.993 29.6131 38.3401 31.7934 36.4176C33.9737 34.4951 37.1672 33.1489 41.3738 32.3792C43.6475 31.9529 46.4215 31.615 49.6985 31.3628C50.1656 31.3269 50.5282 30.9385 50.5282 30.47V30.3779C50.5282 27.8646 49.9232 26.0961 48.7203 25.0686C47.5138 24.0446 45.6557 23.5291 43.1424 23.5291C39.9089 23.5291 36.4215 24.0427 32.6749 25.0698C32.1227 25.2212 31.5646 24.8327 31.5273 24.2613L31.1828 18.9814C31.1565 18.5785 31.4038 18.2073 31.7878 18.0827C36.3948 16.5868 41.0218 15.8357 45.6782 15.8354C45.6792 15.8354 45.6796 15.8343 45.679 15.8336ZM37.7525 43.2986C37.7516 43.2986 37.7508 43.2994 37.7508 43.3004C37.7511 44.889 38.1592 45.9911 38.9823 46.6066C39.8022 47.2224 41.0588 47.5303 42.7522 47.5303C45.0738 47.5303 47.5067 46.8688 50.057 45.5487C50.3469 45.3986 50.5247 45.0968 50.5247 44.7703V38.1474C50.5247 37.6422 50.1059 37.2372 49.6015 37.2646C48.3964 37.3301 47.0621 37.4446 45.602 37.6062C42.7808 37.864 40.7652 38.401 39.5623 39.2208C38.3562 40.0404 37.7547 41.4003 37.7543 43.2968C37.7543 43.2978 37.7535 43.2986 37.7525 43.2986Z" fill="#012246"/>
<path d="M110.539 54.6065C110.538 54.6076 110.537 54.6083 110.535 54.6083C108.331 54.6081 106.162 54.404 104.036 53.9925C102.156 53.6322 100.426 53.1493 98.8473 52.546C98.4769 52.4045 98.2547 52.0281 98.2971 51.6338L98.8768 46.2441C98.9377 45.6778 99.5061 45.3131 100.051 45.4786C101.564 45.9381 103.109 46.3129 104.688 46.6031C106.635 46.9611 108.433 47.1401 110.072 47.1401C113.921 47.1401 115.843 45.9372 115.843 43.5242C115.843 42.6005 115.614 41.8701 115.152 41.3331C114.691 40.7961 114 40.3343 113.076 39.9476C112.152 39.5645 110.538 38.9595 108.228 38.1396C104.738 36.9618 102.293 35.5118 100.882 33.7934C99.4715 32.0749 98.7662 29.8839 98.7662 27.2167C98.7662 23.8299 100.098 21.0875 102.765 18.9824C105.432 16.8808 109.123 15.8283 113.846 15.8283C117.385 15.8283 120.725 16.2954 123.863 17.2327C124.261 17.3514 124.515 17.7352 124.481 18.1485L124.012 23.7685C123.966 24.3215 123.432 24.6983 122.893 24.5663C119.632 23.7674 116.769 23.368 114.308 23.368C110.359 23.368 108.382 24.5208 108.382 26.83C108.382 27.4959 108.547 28.0616 108.884 28.5234C109.217 28.9852 109.897 29.4721 110.924 29.9841C111.948 30.4961 113.513 31.0868 115.618 31.7527C119.413 32.9843 122.055 34.4056 123.544 36.0238C125.03 37.6384 125.775 39.833 125.775 42.6005C125.775 46.3453 124.375 49.281 121.582 51.4112C118.787 53.541 115.107 54.6043 110.544 54.6047C110.542 54.6047 110.541 54.6053 110.539 54.6065Z" fill="#012246"/>
<path d="M140.865 54.6065C140.864 54.6076 140.862 54.6083 140.861 54.6083C138.656 54.6081 136.487 54.404 134.362 53.9925C132.481 53.6322 130.752 53.1493 129.173 52.546C128.802 52.4045 128.58 52.0281 128.623 51.6338L129.202 46.2441C129.263 45.6778 129.832 45.3131 130.377 45.4786C131.889 45.9381 133.435 46.3129 135.013 46.6031C136.961 46.9611 138.758 47.1401 140.398 47.1401C144.246 47.1401 146.169 45.9372 146.169 43.5242C146.169 42.6005 145.94 41.8701 145.478 41.3331C145.016 40.7961 144.325 40.3343 143.401 39.9476C142.478 39.5645 140.863 38.9595 138.554 38.1396C135.063 36.9618 132.618 35.5118 131.208 33.7934C129.797 32.0749 129.092 29.8839 129.092 27.2167C129.092 23.8299 130.423 21.0875 133.091 18.9824C135.758 16.8808 139.449 15.8283 144.171 15.8283C147.711 15.8283 151.051 16.2954 154.189 17.2327C154.586 17.3514 154.841 17.7352 154.806 18.1485L154.338 23.7685C154.292 24.3215 153.757 24.6983 153.218 24.5663C149.958 23.7674 147.094 23.368 144.633 23.368C140.684 23.368 138.708 24.5208 138.708 26.83C138.708 27.4959 138.873 28.0616 139.209 28.5234C139.542 28.9852 140.222 29.4721 141.25 29.9841C142.274 30.4961 143.838 31.0868 145.943 31.7527C149.738 32.9843 152.38 34.4056 153.87 36.0238C155.356 37.6384 156.1 39.833 156.1 42.6005C156.1 46.3453 154.7 49.281 151.908 51.4112C149.112 53.541 145.433 54.6043 140.869 54.6047C140.868 54.6047 140.866 54.6053 140.865 54.6065Z" fill="#012246"/>
<path d="M166.811 11.5214C165.168 11.5214 163.9 11.0989 163.002 10.2505C162.103 9.40554 161.655 8.18471 161.655 6.59514C161.655 5.00556 162.103 3.83843 163.002 2.93982C163.9 2.04121 165.168 1.59369 166.811 1.59369C168.454 1.59369 169.707 2.01614 170.581 2.86464C171.451 3.70955 171.887 4.93037 171.887 6.51995C171.887 8.10953 171.436 9.40554 170.541 10.2505C169.643 11.0954 168.4 11.5214 166.811 11.5214ZM171.58 52.8673C171.58 53.3602 171.18 53.7598 170.687 53.7598H162.548C162.055 53.7598 161.655 53.3602 161.655 52.8673V17.4154C161.655 16.9224 162.055 16.5228 162.548 16.5228H170.687C171.18 16.5228 171.58 16.9224 171.58 17.4154V52.8673Z" fill="#012246"/>
<path d="M196.739 15.83C196.739 15.831 196.739 15.8318 196.74 15.8318C198.238 15.8321 199.674 16.1123 201.051 16.675C201.379 16.8093 201.58 17.1388 201.571 17.4936L201.378 24.9703C201.364 25.4812 200.926 25.8758 200.416 25.8427C199.517 25.7844 198.779 25.756 198.199 25.756C194.376 25.756 191.146 26.4186 188.511 27.7408C188.219 27.8872 188.042 28.1893 188.042 28.5156V52.8672C188.042 53.3602 187.643 53.7598 187.15 53.7598H179.011C178.518 53.7598 178.118 53.3602 178.118 52.8672V28.2943C178.118 26.11 178.025 22.6669 177.843 17.9588C177.825 17.4954 178.164 17.0944 178.624 17.0368L185.522 16.1742C186.019 16.1121 186.47 16.4707 186.521 16.9687L186.954 21.1905C186.983 21.4732 187.36 21.5613 187.519 21.3261C190.003 17.6635 193.076 15.8289 196.737 15.8283C196.738 15.8283 196.739 15.8291 196.739 15.83Z" fill="#012246"/>
<path d="M83.2242 48.2116C83.3154 48.5305 83.2222 48.8737 82.9822 49.1027L76.7278 55.0707L63.9907 16.5433C63.7998 15.9657 64.2299 15.3706 64.8381 15.3706H73.1619C73.5604 15.3706 73.9106 15.6347 74.0201 16.0178L83.2242 48.2116Z" fill="#012246"/>
<path d="M93.7773 5.21505C93.7774 5.21616 93.7769 5.21724 93.7761 5.21793C93.4262 5.49004 93.0875 5.76853 92.7531 6.05744C85.4488 12.3855 83.5906 21.9779 82.0829 31.0467C80.8303 38.5971 80.1682 45.5674 78.2677 51.4194C77.6283 53.3884 76.2169 57.178 72.6946 59.7926C72.6672 59.8125 72.6468 59.8283 72.6297 59.8403C70.7246 61.2347 68.2038 62.3979 65.0649 63.3275C64.2976 63.5548 63.8204 64.3298 63.9933 65.1111L65.1968 70.5481C65.3666 71.3152 66.1045 71.8221 66.8746 71.6661C70.4293 70.9464 76.1159 69.1443 80.5675 64.2814C82.5096 62.1591 83.7916 59.7354 85.0535 57.1803C86.3659 54.5283 86.9093 51.4068 87.5842 48.52C88.9752 42.5677 89.9293 36.5279 90.8655 30.4893C91.7128 25.0205 92.5391 19.4563 95.3637 14.5905C97.6807 10.5985 102.013 8.4687 106.436 7.59114C107.196 7.44048 107.752 6.76685 107.706 5.99407C107.616 4.49445 107.525 2.9958 107.43 1.4966C107.377 0.672033 106.661 0.0446767 105.842 0.155271C101.473 0.745532 97.2652 2.50933 93.7786 5.21216C93.7778 5.21285 93.7773 5.21393 93.7773 5.21505Z" fill="#00C4F6"/>
<path d="M93.7773 5.21505C93.7774 5.21616 93.7769 5.21724 93.7761 5.21793C93.4262 5.49004 93.0875 5.76853 92.7531 6.05744C85.4488 12.3855 83.5906 21.9779 82.0829 31.0467C80.8303 38.5971 80.1682 45.5674 78.2677 51.4194C77.6283 53.3884 76.2169 57.178 72.6946 59.7926C72.6672 59.8125 72.6468 59.8283 72.6297 59.8403C70.7246 61.2347 68.2038 62.3979 65.0649 63.3275C64.2976 63.5548 63.8204 64.3298 63.9933 65.1111L65.1968 70.5481C65.3666 71.3152 66.1045 71.8221 66.8746 71.6661C70.4293 70.9463 76.1159 69.1443 80.5675 64.2814C82.5096 62.1591 83.7916 59.7354 85.0535 57.1803C86.3659 54.5283 86.9093 51.4068 87.5842 48.52C88.9752 42.5677 89.9293 36.5279 90.8655 30.4893C91.7129 25.0205 92.5391 19.4563 95.3637 14.5905C97.6807 10.5985 102.013 8.4687 106.436 7.59114C107.196 7.44048 107.752 6.76685 107.706 5.99407C107.616 4.49445 107.525 2.9958 107.43 1.4966C107.378 0.672033 106.661 0.0446765 105.842 0.155271C101.473 0.745532 97.2652 2.50933 93.7786 5.21216C93.7778 5.21285 93.7773 5.21393 93.7773 5.21505Z" fill="url(#paint0_linear_1_57)"/>
<defs>
<linearGradient id="paint0_linear_1_57" x1="85.9998" y1="43.4993" x2="61.4933" y2="62.2143" gradientUnits="userSpaceOnUse">
<stop stop-color="#012246" stop-opacity="0"/>
<stop offset="1" stop-color="#004E92"/>
</linearGradient>
</defs>
</svg>
